<?xml version="1.0" encoding="UTF-8" standalone="no"?>
<!DOCTYPE svg PUBLIC "-//W3C//DTD SVG 20010904//EN" "http://www.w3.org/TR/2001/REC-SVG-20010904/DTD/svg10.dtd">
<svg version="1.0" xmlns="http://www.w3.org/2000/svg" width="1280.000000pt" height="640.000000pt" viewBox="0 0 1280.000000 640.000000" preserveAspectRatio="xMidYMid meet">
<metadata>
Created by potrace 1.15, written by Peter Selinger 2001-2017
</metadata>
<g transform="translate(0.000000,640.000000) scale(0.100000,-0.100000)" fill="#000000" stroke="none">
<path d="M5680 6100 c-58 -21 -104 -43 -102 -49 2 -10 466 -650 1546 -2131 214 -294 419 -575 456 -625 36 -49 69 -95 73 -102 4 -7 3 -42 -4 -78 -10 -61 -13 -65 -38 -65 -14 0 -125 -5 -246 -11 l-220 -11 -200 77 c-110 42 -213 77 -230 76 -16 0 -325 -39 -685 -86 -1407 -183 -3280 -425 -3290 -425 -16 0 -11 -14 44 -118 l50 -93 40 6 c23 3 694 71 1491 150 1718 172 2535 254 2929 296 159 16 296 29 305 27 14 -3 16 -10 9 -44 -8 -37 -13 -43 -41 -47 -18 -3 -426 -45 -907 -93 -481 -48 -877 -88 -879 -90 -2 -2 24 -67 58 -145 34 -78 60 -143 59 -144 -9 -7 -634 -388 -643 -391 -6 -3 -33 34 -60 81 -28 46 -56 85 -63 85 -7 0 -50 -20 -96 -46 l-85 -45 16 -37 c8 -20 26 -59 39 -85 l25 -48 -83 -37 -83 -38 -1360 -123 c-748 -67 -1376 -125 -1396 -128 l-35 -5 -239 299 c-284 356 -268 334 -227 300 26 -21 44 -27 80 -27 56 1 86 16 113 56 21 33 25 98 6 131 -7 11 -122 139 -256 283 -134 143 -242 263 -240 264 2 2 144 11 314 20 491 25 463 22 509 67 37 38 38 41 34 94 -3 39 -11 62 -27 79 -47 50 -44 50 -577 22 -273 -15 -497 -26 -499 -24 -70 85 -596 639 -618 651 -104 59 -233 -77 -169 -178 11 -16 115 -133 232 -258 117 -125 210 -230 208 -232 -2 -3 -141 -12 -309 -20 -337 -18 -356 -22 -391 -86 -30 -54 -20 -115 28 -158 l37 -34 171 6 171 5 265 -420 c146 -231 266 -426 268 -432 1 -6 -38 -61 -88 -121 l-90 -110 0 -602 c0 -332 2 -603 5 -603 3 0 174 112 380 250 l375 250 262 5 c252 6 2568 35 2733 35 78 0 81 -1 97 -28 30 -51 100 -123 142 -145 41 -22 46 -22 496 -22 401 0 462 2 510 17 79 25 146 72 166 118 l17 38 47 -34 c144 -104 229 -102 421 11 l62 36 118 -117 117 -117 364 7 363 8 73 -100 c39 -55 72 -103 72 -106 0 -3 -92 -6 -205 -6 l-205 0 20 -40 21 -40 1052 2 c579 2 1059 7 1069 11 13 7 38 -22 129 -147 62 -86 118 -156 124 -156 19 0 219 61 228 70 5 4 -75 128 -176 276 -150 218 -182 271 -169 278 15 9 68 6 232 -15 223 -27 415 16 548 122 l51 40 166 9 c364 21 434 48 643 246 l117 111 141 18 141 18 76 99 75 99 -135 227 c-74 125 -136 228 -138 230 -1 2 -108 9 -237 16 l-235 12 -104 97 c-345 322 -593 421 -1219 487 -107 11 -408 43 -668 71 l-474 50 -78 50 c-83 53 -92 54 -222 34 -25 -4 -27 -1 -38 50 -6 31 -10 63 -8 72 2 13 60 27 303 74 165 32 310 59 322 59 12 0 147 -39 300 -86 l278 -86 200 40 c110 23 367 75 570 117 204 42 543 112 755 155 212 43 538 110 725 149 187 38 529 109 760 156 231 47 430 89 442 93 21 7 20 9 -31 132 -32 77 -59 126 -68 128 -9 2 -1043 -175 -2298 -394 -1254 -218 -2283 -394 -2286 -391 -3 3 -20 83 -38 178 l-33 174 53 7 c104 14 180 67 220 153 60 127 2 270 -133 332 -51 24 -57 24 -290 21 -265 -3 -281 -7 -351 -76 -19 -19 -37 -30 -41 -25 -3 6 -379 503 -835 1106 -495 655 -836 1097 -845 1096 -9 0 -63 -18 -121 -39z m3580 -3465 c693 -75 756 -85 945 -146 167 -54 352 -166 495 -299 l65 -61 -50 6 c-664 70 -1230 201 -1729 401 -139 56 -316 146 -316 161 0 3 17 2 38 -1 20 -3 269 -31 552 -61z m-31 -1871 c46 -63 80 -118 76 -122 -4 -4 -114 -8 -245 -10 l-238 -3 -30 43 c-38 56 -112 182 -112 191 0 4 82 8 183 10 100 1 205 3 233 5 l50 2 83 -116z m-637 -9 c32 -55 58 -106 58 -112 0 -10 -95 -13 -444 -13 l-445 0 -75 104 c-42 57 -76 106 -76 110 0 6 331 12 695 11 l229 0 58 -100z"/>
</g>
</svg>